<svg width="94" height="105" viewBox="0 0 94 105" fill="none" xmlns="http://www.w3.org/2000/svg">
<path d="M67.3334 46.8889C67.3334 47.9935 68.2288 48.8889 69.3334 48.8889C70.4379 48.8889 71.3334 47.9935 71.3334 46.8889H67.3334ZM22.4445 46.8889C22.4445 47.9935 23.3399 48.8889 24.4445 48.8889C25.549 48.8889 26.4445 47.9935 26.4445 46.8889H22.4445ZM7.61111 35.6665V33.6665C6.57094 33.6665 5.7044 34.4638 5.61802 35.5004L7.61111 35.6665ZM86.1667 35.6665L88.1598 35.5004C88.0734 34.4638 87.2069 33.6665 86.1667 33.6665V35.6665ZM91.7778 103V105C92.3371 105 92.8709 104.766 93.2496 104.354C93.6283 103.943 93.8174 103.391 93.7709 102.834L91.7778 103ZM2 103L0.00690854 102.834C-0.0395391 103.391 0.149525 103.943 0.528235 104.354C0.906945 104.766 1.4407 105 2 105V103ZM71.3334 46.8889V24.4445H67.3334V46.8889H71.3334ZM71.3334 24.4445C71.3334 10.9449 60.3884 0 46.8889 0V4C58.1793 4 67.3334 13.1541 67.3334 24.4445H71.3334ZM46.8889 0C33.3894 0 22.4445 10.9449 22.4445 24.4445H26.4445C26.4445 13.1541 35.5985 4 46.8889 4V0ZM22.4445 24.4445V46.8889H26.4445V24.4445H22.4445ZM7.61111 37.6665H86.1667V33.6665H7.61111V37.6665ZM84.1736 35.8326L89.7847 103.166L93.7709 102.834L88.1598 35.5004L84.1736 35.8326ZM91.7778 101H2V105H91.7778V101ZM3.99309 103.166L9.60421 35.8326L5.61802 35.5004L0.00690854 102.834L3.99309 103.166Z" fill="#111827"/>
<path d="M36.3861 82.1148C35.9956 82.5054 35.9956 83.1385 36.3861 83.5291C36.7766 83.9196 37.4098 83.9196 37.8003 83.5291L36.3861 82.1148ZM54.6749 83.5291C55.0654 83.9196 55.6986 83.9196 56.0891 83.5291C56.4796 83.1385 56.4796 82.5054 56.0891 82.1148L54.6749 83.5291ZM37.8003 83.5291C42.4605 78.8688 50.0146 78.8688 54.6749 83.5291L56.0891 82.1148C50.6478 76.6736 41.8274 76.6736 36.3861 82.1148L37.8003 83.5291Z" fill="#111827"/>
<circle cx="33.6695" cy="67.051" r="3.27966" stroke="black" stroke-width="2"/>
<circle cx="59.3475" cy="67.051" r="3.27966" stroke="black" stroke-width="2"/>
</svg>
