<svg xmlns="http://www.w3.org/2000/svg" width="390.645" height="499.815"><defs><clipPath id="a"><path data-name="Rectangle 2" transform="translate(347.36 .24)" fill="none" d="M0 0h390.645v499.815H0z"/></clipPath></defs><g data-name="Group 23" transform="translate(-347.36 -.24)" clip-path="url(#a)"><g data-name="Group 16" fill="none" stroke="#000" stroke-miterlimit="10" stroke-width=".75"><g data-name="Group 14"><g data-name="Group 5"><g data-name="Group 4"><path data-name="Path 3" d="M623.348 160.421s-18.765-29.933 8.614-60.643c28.562-32.035 48.508-33.09 48.508-33.09s17.516 80.524-57.122 93.733z"/><path data-name="Path 4" d="M623.348 160.421s8.873-52.775 57.122-93.733"/><path data-name="Path 5" d="M658.992 76.046l2.976 9.219 20.454-3.428"/><path data-name="Path 6" d="M648.987 82.886l4.622 12.288 28.551-2.4"/><path data-name="Path 7" d="M640.915 90.119l6.131 15.019 34.2-3.525"/><path data-name="Path 8" d="M633.724 97.582l7 17.619 38-1.927"/><path data-name="Path 9" d="M627.783 104.732l7.822 19.644L675.4 122.5"/><path data-name="Path 10" d="M622.929 112.483l8.382 22.112 39.31-3.053"/><path data-name="Path 11" d="M618.865 122.965l8.758 21.4 37.3-5.582"/><path data-name="Path 12" d="M617.115 134.054l7.633 20.152 32.349-7.933"/></g><path data-name="Path 13" d="M623.187 160.051s-6.482 27.873-1.716 55.7"/><path data-name="Path 14" d="M620.093 204.178c4.892-17.272 14.477-26.214 14.477-26.214"/><path data-name="Path 15" d="M634.19 178.3s-1.514-10.394 4.127-12.515-.357 7.41-.357 7.41 4.274-7.725 6.809-5.463-4.244 7.1-4.244 7.1 6.665-5.092 8.134-1.623-10.033 7.068-14.469 5.091z"/></g><g data-name="Group 7"><g data-name="Group 6"><path data-name="Path 16" d="M645.718 369.811s-5.745-34.858 31.372-52.607c38.72-18.516 57.525-11.783 57.525-11.783s-14.951 81.04-88.897 64.39z"/><path data-name="Path 17" d="M645.718 369.811s28.571-45.25 88.9-64.39"/><path data-name="Path 18" d="M711.189 305.755l-.817 9.654 20.19 4.74"/><path data-name="Path 19" d="M699.319 308.2l-.483 13.12 27.262 8.814"/><path data-name="Path 20" d="M689.079 311.753l-.147 16.222 32.9 9.959"/><path data-name="Path 21" d="M679.563 315.859l-.354 18.954L715 347.714"/><path data-name="Path 22" d="M671.322 320.159l-.374 21.141 37.426 13.645"/><path data-name="Path 23" d="M663.854 325.567l-.814 23.5 37.438 12.369"/><path data-name="Path 24" d="M656.087 333.438l-.225 23.22 36.632 9.438"/><path data-name="Path 25" d="M650.148 342.943l-.738 21.676 33.084 5.185"/></g><path data-name="Path 26" d="M645.712 369.408A97.114 97.114 0 00638.4 382.3"/></g><g data-name="Group 9"><g data-name="Group 8"><path data-name="Path 27" d="M632.037 278.357s3.777-23.013-20.732-34.713c-25.568-12.205-37.979-7.753-37.979-7.753s9.906 53.489 58.711 42.466z"/><path data-name="Path 28" d="M632.037 278.357s-18.88-29.858-58.711-42.466"/><path data-name="Path 29" d="M588.79 236.1l.543 6.372-13.326 3.138"/><path data-name="Path 30" d="M596.627 237.71l.325 8.66-17.992 5.83"/><path data-name="Path 31" d="M603.388 240.051l.1 10.708-21.715 6.589"/><path data-name="Path 32" d="M609.672 242.757l.242 12.512-23.622 8.531"/><path data-name="Path 33" d="M615.114 245.592l.256 13.955-24.7 9.024"/><path data-name="Path 34" d="M620.08 248.913l.514 15.758-24.708 8.182"/><path data-name="Path 35" d="M625.187 254.42l.148 15.258-24.365 6.253"/><path data-name="Path 36" d="M629.111 260.8l.487 14.128-21.506 3.338"/></g><path data-name="Path 37" d="M632.041 278.091s6.739 6.549 11.3 18.849"/></g><g data-name="Group 11"><g data-name="Group 10"><path data-name="Path 38" d="M585.235 87.8s7.536-34.516-28.616-54.156c-37.712-20.493-56.84-14.744-56.84-14.744s10.749 81.708 85.456 68.9z"/><path data-name="Path 39" d="M585.235 87.8s-26.2-46.664-85.456-68.892"/><path data-name="Path 40" d="M523.157 20.448l.317 9.683-20.408 3.692"/><path data-name="Path 41" d="M534.885 23.5l-.194 13.127-27.681 7.4"/><path data-name="Path 42" d="M544.928 27.578l-.69 16.207-33.372 8.248"/><path data-name="Path 43" d="M554.219 32.169l-.625 18.947-36.41 11.037"/><path data-name="Path 44" d="M562.228 36.889l-.718 21.132-38.08 11.7"/><path data-name="Path 45" d="M569.43 42.736l-.422 23.449-38.027 10.422"/><path data-name="Path 46" d="M576.829 50.931l-1.046 23.2-37.016 7.536"/><path data-name="Path 47" d="M582.205 60.922l-.389 21.5-32.562 3.7"/></g><path data-name="Path 48" d="M585.262 87.394a97.109 97.109 0 016.642 13.255"/></g><g data-name="Group 13"><g data-name="Group 12"><path data-name="Path 49" d="M595.871 400.27s7.535-34.516-28.616-54.157c-37.713-20.488-56.841-14.735-56.841-14.735s10.75 81.703 85.457 68.892z"/><path data-name="Path 50" d="M595.871 400.27s-26.2-46.665-85.457-68.892"/><path data-name="Path 51" d="M533.792 332.921l.317 9.683L513.7 346.3"/><path data-name="Path 52" d="M545.52 335.975l-.194 13.127-27.681 7.4"/><path data-name="Path 53" d="M555.563 340.051l-.69 16.208-33.373 8.247"/><path data-name="Path 54" d="M564.854 344.643l-.625 18.947-36.41 11.037"/><path data-name="Path 55" d="M572.863 349.362l-.718 21.132-38.08 11.7"/><path data-name="Path 56" d="M580.094 355.235l-.451 23.424-38.026 10.421"/><path data-name="Path 57" d="M587.4 363.3l-.979 23.308-37.031 7.537"/><path data-name="Path 58" d="M592.834 373.452l-.383 21.442-32.865 3.6"/></g><path data-name="Path 59" d="M595.9 399.867s18.905 27.048 24.175 48.1"/></g><path data-name="Path 60" d="M617.337-36.067c-15.956 40.219-32.26 99.321-22.272 167.12 7.095 48.161 23.884 76.457 34 102.7 21.9 56.847 29.143 147.332-40.843 292.857"/></g><g data-name="Group 15"><path data-name="Path 61" d="M643.463 342.051c-5.743-17.008-15.676-25.29-15.676-25.29"/><path data-name="Path 62" d="M628.184 317.079s1-10.457-4.743-12.3.724 7.383.724 7.383-4.653-7.5-7.072-5.118 4.591 6.878 4.591 6.878-6.909-4.755-8.205-1.217 10.372 6.568 14.705 4.374z"/></g></g><g data-name="Group 22"><g data-name="Group 21"><g data-name="Group 18" fill="none" stroke="#000" stroke-miterlimit="10" stroke-width=".75"><g data-name="Group 17"><path data-name="Path 63" d="M420.166 451.8s-16.031-25.573 7.359-51.808c24.4-27.369 41.441-28.27 41.441-28.27s14.964 68.796-48.8 80.078z"/><path data-name="Path 64" d="M420.166 451.8s7.58-45.087 48.8-80.078"/><path data-name="Path 65" d="M450.617 379.72l2.542 7.876 17.474-2.928"/><path data-name="Path 66" d="M442.07 385.564l3.949 10.5 24.391-2.052"/><path data-name="Path 67" d="M435.173 391.743l5.238 12.831 29.214-3.011"/><path data-name="Path 68" d="M429.03 398.119l5.976 15.052 32.462-1.646"/><path data-name="Path 69" d="M423.955 404.227l6.683 16.782 33.995-1.6"/><path data-name="Path 70" d="M419.808 410.849l7.161 18.89 33.583-2.608"/><path data-name="Path 71" d="M416.336 419.8l7.482 18.286 31.87-4.769"/><path data-name="Path 72" d="M414.841 429.277l6.52 17.216L449 439.715"/></g><path data-name="Path 73" d="M420.028 451.487s-5.537 23.812-1.466 47.581"/></g><g data-name="Group 20"><g data-name="Group 19" fill="none" stroke="#000" stroke-miterlimit="10" stroke-width=".75"><path data-name="Path 74" d="M397.83 342.284s-17.606-24.515 4.09-52.168c22.633-28.847 39.58-30.816 39.58-30.816s19.259 67.717-43.67 82.984z"/><path data-name="Path 75" d="M397.83 342.284s4.733-45.473 43.673-82.985"/><path data-name="Path 76" d="M423.693 268.431l3.032 7.7 17.255-4.02"/><path data-name="Path 77" d="M415.53 274.8l4.6 10.229 24.214-3.58"/><path data-name="Path 78" d="M409.035 281.4l6.034 12.477 28.967-4.84"/><path data-name="Path 79" d="M403.3 288.15l6.91 14.647 32.294-3.682"/><path data-name="Path 80" d="M398.623 294.565l7.724 16.329 33.827-3.731"/><path data-name="Path 81" d="M394.956 301.591l8.277 18.247 33.353-4.713"/><path data-name="Path 82" d="M391.93 310.525l8.683 17.844 31.583-6.633"/><path data-name="Path 83" d="M391.1 320.181l7.591 16.729 26.79-8.134"/></g></g><path data-name="Path 84" d="M398.006 342.013a256.017 256.017 0 00-2 84.7c6.061 41.145 20.4 65.319 29.043 87.741" fill="none" stroke="#000" stroke-miterlimit="10" stroke-width=".75"/></g></g></g></svg>