<?xml version="1.0" encoding="UTF-8"?>
<svg width="52px" height="52px" viewBox="0 0 52 52" version="1.1" xmlns="http://www.w3.org/2000/svg" xmlns:xlink="http://www.w3.org/1999/xlink">
    <title>editors-pick</title>
    <g id="Page-1" stroke="none" stroke-width="1" fill="none" fill-rule="evenodd">
        <g id="editors-pick">
            <circle id="Oval-8" fill="#FFFFFF" cx="26" cy="26" r="26"></circle>
            <g id="crown" transform="translate(1.625000, 1.625000)" fill="#F9C51F" fill-rule="nonzero">
                <path d="M24.375,0 C10.9342187,0 0,10.9342187 0,24.375 C0,37.8157813 10.9342187,48.75 24.375,48.75 C37.8157813,48.75 48.75,37.8157813 48.75,24.375 C48.75,10.9342187 37.8157813,0 24.375,0 Z M38.5714063,20.401875 L36.3634375,33.2657813 C36.2375,33.9970312 35.60375,34.53125 34.8623438,34.53125 L13.8876562,34.53125 C13.14625,34.53125 12.5125,33.9970312 12.3865625,33.2657813 L10.1785937,20.401875 C10.0810937,19.8392188 10.3085937,19.2684375 10.765625,18.9251563 C11.2246875,18.5798438 11.8320312,18.525 12.3479687,18.7748438 L18.2264062,21.636875 L23.0445312,12.9695313 C23.5807812,12.000625 25.17125,12.000625 25.7075,12.9695313 L30.525625,21.636875 L36.4040625,18.7748438 C36.9179687,18.525 37.5273437,18.5798438 37.9864062,18.9251563 C38.4414062,19.2684375 38.6689062,19.8392188 38.5714062,20.401875 L38.5714063,20.401875 Z" id="Shape"></path>
            </g>
        </g>
    </g>
</svg>