<?xml version="1.0" standalone="no"?>
<!DOCTYPE svg PUBLIC "-//W3C//DTD SVG 20010904//EN"
 "http://www.w3.org/TR/2001/REC-SVG-20010904/DTD/svg10.dtd">
<svg version="1.0" xmlns="http://www.w3.org/2000/svg"
 width="820.000000pt" height="254.000000pt" viewBox="0 0 820.000000 254.000000"
 preserveAspectRatio="xMidYMid meet">

<g transform="translate(0.000000,254.000000) scale(0.100000,-0.100000)"
fill="#000000" stroke="none">
<path d="M2555 2526 c-98 -24 -170 -77 -211 -156 -14 -26 -19 -57 -19 -120 0
-75 3 -91 29 -138 45 -80 94 -112 293 -187 133 -50 157 -65 184 -108 24 -39
21 -107 -7 -139 -75 -84 -288 -76 -434 16 l-55 35 -3 -81 c-2 -45 0 -88 2 -95
14 -37 209 -93 319 -93 112 0 229 44 289 107 74 77 93 226 43 329 -46 94 -86
119 -347 218 -116 45 -148 75 -148 140 0 85 60 126 183 126 80 0 158 -22 223
-62 21 -14 45 -28 52 -32 9 -5 12 14 12 83 l0 90 -53 25 c-102 51 -248 68
-352 42z"/>
<path d="M6695 2526 c-158 -39 -248 -158 -231 -304 17 -143 87 -210 303 -288
175 -63 213 -93 221 -172 4 -44 1 -53 -26 -84 -18 -19 -48 -40 -70 -46 -48
-15 -151 -15 -212 -1 -47 11 -154 61 -181 85 -8 8 -19 14 -22 14 -4 0 -7 -40
-7 -90 l0 -90 48 -24 c144 -73 337 -84 469 -26 61 27 129 94 150 148 26 68 23
182 -6 244 -41 86 -112 135 -286 198 -178 65 -215 95 -215 174 0 44 38 90 86
106 49 17 153 15 216 -4 29 -8 79 -31 111 -50 l57 -35 0 90 0 89 -51 26 c-98
49 -247 66 -354 40z"/>
<path d="M7732 2524 c-29 -7 -65 -20 -81 -28 -116 -60 -171 -189 -136 -321 29
-108 89 -162 243 -220 227 -86 272 -119 272 -199 0 -88 -52 -128 -176 -134
-99 -5 -187 18 -278 73 -32 19 -60 35 -62 35 -2 0 -4 -40 -4 -90 l0 -90 48
-24 c90 -45 159 -60 277 -60 132 1 204 24 273 87 57 53 81 103 89 180 11 118
-39 220 -137 282 -19 12 -91 43 -160 69 -204 77 -240 108 -227 193 12 71 71
106 183 105 81 -1 153 -22 228 -67 32 -19 60 -35 63 -35 2 0 2 39 1 88 l-3 87
-52 28 c-99 53 -253 70 -361 41z"/>
<path d="M4120 2006 l0 -526 85 0 85 0 2 337 3 337 348 -343 347 -344 0 527 0
526 -85 0 -85 0 0 -331 0 -331 -340 334 c-187 183 -345 335 -350 336 -6 2 -10
-187 -10 -522z"/>
<path d="M0 2001 l0 -521 233 0 c236 0 294 7 362 43 43 22 91 75 114 127 29
63 29 174 0 235 -22 48 -101 125 -127 125 -8 0 4 13 26 30 64 46 87 98 87 200
0 128 -42 196 -155 249 -54 25 -61 26 -297 29 l-243 4 0 -521z m464 349 c46
-24 70 -63 70 -117 -1 -113 -50 -145 -236 -151 l-128 -4 0 147 0 147 133 -4
c91 -2 141 -8 161 -18z m21 -432 c43 -23 66 -51 75 -95 19 -81 -24 -159 -99
-182 -21 -6 -95 -11 -165 -11 l-126 0 0 156 0 156 143 -4 c105 -3 150 -8 172
-20z"/>
<path d="M1110 2156 c0 -334 2 -369 20 -428 50 -163 166 -251 349 -264 81 -6
184 12 243 42 91 47 166 156 188 274 6 29 10 207 10 396 l0 344 -84 0 -85 0
-3 -357 c-3 -313 -6 -364 -21 -403 -35 -89 -110 -139 -208 -140 -103 0 -165
34 -207 113 l-27 52 -3 368 -3 367 -85 0 -84 0 0 -364z"/>
<path d="M3460 2000 l0 -520 85 0 85 0 0 520 0 520 -85 0 -85 0 0 -520z"/>
<path d="M5450 2000 l0 -520 310 0 310 0 0 75 0 75 -222 2 -223 3 -3 163 -2
162 200 0 200 0 0 75 0 75 -200 0 -200 0 0 130 0 130 225 0 225 0 0 75 0 75
-310 0 -310 0 0 -520z"/>
<path d="M640 510 l0 -510 95 0 95 0 -2 508 -3 507 -92 3 -93 3 0 -511z"/>
<path d="M2875 1009 c-77 -11 -176 -60 -213 -105 -73 -88 -70 -241 5 -325 50
-55 96 -80 255 -138 158 -57 192 -78 208 -126 23 -68 -15 -130 -94 -155 -90
-29 -275 4 -368 65 -20 14 -40 25 -43 25 -3 0 -5 -38 -5 -86 l0 -85 58 -26
c174 -77 403 -66 530 26 88 65 120 215 68 326 -39 85 -86 116 -281 185 -66 24
-132 49 -147 57 -64 32 -89 91 -63 147 46 96 238 101 402 11 l63 -35 0 86 0
85 -52 23 c-97 42 -220 59 -323 45z"/>
<path d="M3750 510 l0 -510 95 0 95 0 0 510 0 510 -95 0 -95 0 0 -510z"/>
<path d="M4450 511 l0 -511 228 0 c196 0 240 3 307 20 166 42 270 138 326 301
32 93 33 265 1 366 -46 148 -154 257 -300 304 -59 19 -97 22 -314 26 l-248 6
0 -512z m511 333 c74 -22 148 -96 179 -179 28 -77 31 -224 5 -300 -55 -161
-170 -220 -415 -213 l-105 3 -3 353 -2 352 143 0 c103 0 159 -5 198 -16z"/>
<path d="M5660 510 l0 -510 315 0 315 0 0 75 0 75 -230 0 -230 0 0 160 0 160
210 0 211 0 -3 73 -3 72 -207 3 -208 2 0 120 0 120 230 0 230 0 0 80 0 80
-315 0 -315 0 0 -510z"/>
<path d="M6808 1014 c-5 -4 -8 -234 -8 -511 l0 -503 85 0 85 0 0 205 0 205 63
-1 62 0 170 -204 170 -204 93 -1 c50 0 92 2 92 4 0 2 -78 96 -174 208 l-173
203 51 18 c111 37 164 113 173 245 8 110 -13 178 -75 241 -79 81 -125 93 -387
98 -121 3 -223 2 -227 -3z m450 -168 c48 -25 72 -70 72 -134 0 -66 -20 -103
-70 -131 -33 -18 -54 -21 -164 -21 l-126 0 0 156 0 156 128 -4 c95 -3 135 -9
160 -22z"/>
<path d="M1340 516 l0 -496 85 0 85 0 2 314 3 314 345 -315 c190 -173 348
-317 353 -320 4 -2 7 219 7 491 l0 496 -85 0 -85 0 -2 -310 -3 -311 -175 157
c-96 86 -255 228 -352 316 l-178 159 0 -495z"/>
</g>
</svg>
