<?xml version="1.0" standalone="no"?>
<!DOCTYPE svg PUBLIC "-//W3C//DTD SVG 20010904//EN"
 "http://www.w3.org/TR/2001/REC-SVG-20010904/DTD/svg10.dtd">
<svg version="1.0" xmlns="http://www.w3.org/2000/svg"
 width="800.000000pt" height="373.000000pt" viewBox="0 0 800.000000 373.000000"
 preserveAspectRatio="xMidYMid meet">

<g transform="translate(0.000000,373.000000) scale(0.100000,-0.100000)"
fill="#000000" stroke="none">
<path d="M1671 3719 c-637 -67 -1206 -469 -1485 -1049 -304 -633 -225 -1386
203 -1945 64 -84 202 -226 291 -300 207 -171 447 -294 712 -364 213 -57 281
-61 1024 -61 764 0 750 -1 914 77 82 39 108 59 186 137 74 74 99 107 133 176
77 158 74 129 81 763 l5 568 384 -673 c212 -370 402 -699 423 -730 200 -298
588 -401 913 -243 158 77 267 186 340 340 68 144 68 143 74 747 l6 547 400
-702 400 -701 85 -86 c139 -140 283 -206 471 -217 292 -17 557 135 684 392 87
175 80 13 83 1773 l2 1562 -220 0 -220 0 -2 -1532 c-3 -1318 -5 -1539 -18
-1573 -8 -22 -39 -66 -70 -97 -65 -67 -138 -95 -224 -84 -58 6 -142 45 -175
80 -12 13 -347 593 -744 1287 -678 1187 -725 1265 -760 1283 -34 16 -42 17
-75 4 -25 -9 -43 -25 -54 -48 -17 -33 -18 -111 -18 -1206 0 -1299 4 -1221 -67
-1303 -56 -66 -123 -96 -213 -95 -64 0 -83 4 -128 29 -29 16 -65 43 -80 60
-15 17 -350 597 -746 1289 -665 1164 -721 1259 -753 1273 -41 17 -89 5 -119
-28 -18 -20 -19 -67 -24 -1223 l-5 -1201 -22 -41 c-34 -63 -66 -97 -125 -129
l-53 -30 -695 0 c-628 0 -703 2 -783 18 -521 106 -926 461 -1091 957 -50 151
-69 269 -69 440 0 243 49 449 159 660 201 387 574 662 1014 746 66 12 174 17
478 21 l392 5 0 219 0 219 -367 -1 c-203 -1 -406 -6 -452 -10z"/>
<path d="M3265 3716 c-156 -31 -272 -92 -380 -201 -91 -91 -143 -174 -183
-290 l-27 -80 -5 -1005 c-4 -811 -8 -1010 -18 -1028 -28 -49 -53 -52 -455 -52
-409 0 -483 7 -617 56 -134 50 -288 170 -369 288 -159 230 -187 546 -72 793
97 206 272 360 496 434 67 22 86 24 460 29 l390 5 3 223 2 224 -387 -5 c-349
-4 -398 -7 -485 -26 -517 -114 -895 -509 -980 -1025 -16 -93 -15 -302 1 -396
20 -113 67 -254 124 -364 145 -284 409 -512 705 -610 182 -60 160 -59 895 -63
l678 -4 34 34 35 35 0 1174 c0 1321 -5 1237 75 1326 86 96 216 123 328 68 31
-15 69 -42 85 -60 16 -18 350 -595 742 -1281 392 -687 721 -1256 731 -1266 37
-37 95 -37 140 0 l24 19 5 1199 c5 1197 5 1198 26 1244 87 188 326 232 462 85
22 -24 337 -565 750 -1288 413 -721 724 -1256 739 -1268 48 -38 116 -19 145
40 17 33 18 127 18 1543 l0 1507 -225 0 -225 0 -2 -857 -3 -857 -403 705
c-245 430 -421 726 -448 757 -92 105 -232 191 -374 229 -98 26 -263 23 -365
-6 -206 -58 -371 -196 -461 -386 -69 -145 -68 -132 -74 -747 l-5 -557 -395
692 c-217 380 -414 716 -437 747 -91 118 -243 217 -392 255 -90 23 -221 27
-306 11z"/>
</g>
</svg>
