<?xml version="1.0" standalone="no"?>
<!DOCTYPE svg PUBLIC "-//W3C//DTD SVG 20010904//EN"
 "http://www.w3.org/TR/2001/REC-SVG-20010904/DTD/svg10.dtd">
<svg version="1.0" xmlns="http://www.w3.org/2000/svg"
 width="820.000000pt" height="221.000000pt" viewBox="0 0 820.000000 221.000000"
 preserveAspectRatio="xMidYMid meet">
<metadata>
Created by potrace 1.16, written by Peter Selinger 2001-2019
</metadata>
<g transform="translate(0.000000,221.000000) scale(0.100000,-0.100000)"
fill="#000000" stroke="none">
<path d="M4330 2072 l-295 -57 -3 -32 c-3 -35 -4 -34 79 -48 49 -7 75 -39 96
-115 17 -60 18 -128 18 -863 0 -700 2 -798 15 -801 24 -7 169 -34 255 -48 44
-7 160 -12 260 -12 151 1 192 4 258 22 201 55 366 188 450 363 69 143 82 206
82 394 0 175 -12 239 -64 350 -148 313 -439 406 -815 259 -19 -7 -19 0 -12
291 4 163 10 310 13 326 5 26 3 29 -18 28 -13 0 -157 -26 -319 -57z m568 -713
c81 -40 157 -165 186 -311 30 -145 18 -386 -26 -527 -73 -236 -194 -349 -343
-319 l-52 10 -6 166 c-4 91 -7 351 -7 578 l0 413 38 6 c20 4 44 8 52 10 31 8
117 -7 158 -26z"/>
<path d="M40 2047 l0 -43 64 -11 c123 -21 165 -56 190 -159 46 -187 50 -1183
5 -1419 -14 -74 -49 -137 -89 -160 -19 -11 -64 -25 -100 -30 l-65 -11 -3 -47
-3 -47 530 0 531 0 0 44 c0 50 -8 56 -72 56 -103 0 -175 50 -202 139 -16 55
-31 245 -40 524 l-6 159 138 -4 c132 -3 141 -4 180 -31 52 -34 90 -90 119
-176 l22 -66 45 -3 46 -3 0 341 0 341 -47 -3 c-46 -3 -48 -4 -59 -43 -32 -111
-98 -194 -171 -214 -21 -6 -91 -11 -156 -11 l-118 0 6 218 c3 119 8 295 11
390 l6 172 173 0 c199 0 256 -8 342 -50 103 -51 198 -173 253 -327 24 -68 29
-70 93 -51 l40 12 -6 195 c-4 107 -7 232 -7 278 l0 83 -825 0 -825 0 0 -43z"/>
<path d="M2030 1555 c-267 -57 -461 -251 -525 -525 -26 -110 -24 -308 4 -423
54 -225 194 -397 379 -467 191 -73 481 -62 650 24 173 88 302 252 353 451 27
105 29 316 4 423 -35 152 -111 290 -208 378 -66 59 -189 118 -289 139 -94 18
-279 19 -368 0z m235 -104 c108 -49 174 -210 196 -481 13 -151 1 -377 -27
-505 -46 -217 -172 -322 -303 -255 -55 27 -97 83 -131 172 -96 248 -89 754 13
955 58 113 157 158 252 114z"/>
<path d="M3270 1519 c-135 -27 -269 -54 -297 -60 -52 -10 -53 -11 -53 -45 0
-32 2 -34 36 -34 90 0 137 -58 156 -192 15 -103 15 -662 1 -774 -17 -136 -54
-184 -149 -199 l-44 -6 0 -45 0 -44 440 0 440 0 0 44 0 44 -75 7 c-107 10
-144 45 -165 154 -16 87 -29 452 -21 613 8 175 10 180 81 211 82 37 207 23
323 -35 l38 -19 13 33 c43 104 136 346 136 355 0 21 -125 46 -202 41 -130 -9
-263 -99 -340 -229 l-38 -64 0 148 c0 134 -2 147 -17 146 -10 0 -128 -22 -263
-50z"/>
<path d="M6255 1560 c-314 -50 -523 -261 -580 -586 -39 -222 4 -437 120 -599
86 -121 234 -221 385 -262 49 -14 101 -18 210 -17 131 0 153 3 225 28 44 15
112 46 150 68 72 43 185 142 185 163 0 6 -11 22 -24 34 l-24 22 -47 -30 c-83
-52 -137 -66 -265 -66 -186 0 -290 49 -386 182 -64 89 -95 179 -102 301 l-5
92 438 0 438 0 -6 98 c-16 276 -166 488 -397 557 -67 19 -233 27 -315 15z
m156 -113 c67 -45 103 -151 115 -334 l7 -100 -93 -6 c-51 -4 -147 -7 -213 -7
l-120 0 6 73 c24 276 170 460 298 374z"/>
<path d="M7480 1554 c-150 -32 -297 -138 -354 -255 -68 -140 -49 -327 43 -431
51 -59 135 -108 289 -170 79 -31 163 -68 186 -82 142 -84 166 -221 56 -328
-60 -58 -131 -78 -216 -60 -81 17 -123 40 -190 107 -48 47 -73 84 -114 169
-52 106 -54 108 -83 102 -16 -3 -34 -6 -39 -6 -8 0 -4 -194 8 -356 l5 -72 68
-21 c136 -43 218 -54 406 -55 143 -1 193 3 245 17 155 42 276 130 329 240 84
173 58 385 -60 491 -52 47 -170 112 -273 151 -164 62 -258 122 -292 186 -18
35 -18 130 0 172 16 39 76 94 112 103 40 10 146 -2 182 -20 81 -42 160 -142
202 -258 13 -35 24 -64 25 -65 1 -1 18 2 38 8 l37 10 0 63 c0 35 -3 117 -6
184 l-7 120 -64 21 c-150 50 -393 66 -533 35z"/>
</g>
</svg>
