<svg id="Layer_1" data-name="Layer 1" xmlns="http://www.w3.org/2000/svg" viewBox="0 0 200 130"><g id="_2dSHSd" data-name="2dSHSd"><path d="M72.32,89c-.26.28-.47.54-.71.77a5.89,5.89,0,0,1-6.82.78,4.16,4.16,0,0,1-1.06-6.12,6.67,6.67,0,0,1,2.34-1.88L67.21,82c-.06-.15-.13-.29-.18-.43a13.4,13.4,0,0,1-.68-2.33,4.11,4.11,0,0,1,2.83-4.41,6.26,6.26,0,0,1,4.37,0,2.44,2.44,0,0,1,1.83,2A2.32,2.32,0,0,1,74.62,79a15.92,15.92,0,0,1-1.85,1.27,8.67,8.67,0,0,1-.83.38L74.35,84l.37-.77a9,9,0,0,1,1.6-2.48,3.15,3.15,0,0,1,2.87-1,2.54,2.54,0,0,1,2,2.55,2.34,2.34,0,0,1-1.93,2.4,2.45,2.45,0,0,1-2.45-.89,2.25,2.25,0,0,1-.3-2.48.43.43,0,0,0,0-.28,10.63,10.63,0,0,0-2,3.2,13.4,13.4,0,0,0,3.68,3.2,2.87,2.87,0,0,0,.76.27,1.57,1.57,0,0,0,1.86-1.86,2,2,0,0,1,0-.35.43.43,0,0,1,.3.51A6.46,6.46,0,0,1,81,87.29a5.34,5.34,0,0,1-4,4,2.55,2.55,0,0,1-2-.28c-.79-.47-1.53-1-2.29-1.56A5.34,5.34,0,0,1,72.32,89Zm-.26-.26a26.7,26.7,0,0,1-4.69-6.45c-1,.42-1.24.91-1,1.83a10.87,10.87,0,0,0,3.24,5.06c.9.8,1.55.7,2.3-.26Zm-.26-8.39c.78-.32,1.06-.68.94-1.29a9.78,9.78,0,0,0-1.47-3.67,2.64,2.64,0,0,0-.35-.4.69.69,0,0,0-1.21.62,4.76,4.76,0,0,0,.1.52A17.71,17.71,0,0,0,71.8,80.34Z"/><path d="M96.12,91.06H90.75V89.53l-.1,0a1.1,1.1,0,0,0-.09.14,2.84,2.84,0,0,1-4,1.34,4,4,0,0,1-1.45-1.3,7.39,7.39,0,0,1,.72-8.89,3.41,3.41,0,0,1,2.58-1.19,2.11,2.11,0,0,1,2,1.35,1.23,1.23,0,0,0,.26.41c0-.11,0-.23,0-.35V76.46c0-1.12-.4-1.52-1.52-1.55a3.32,3.32,0,0,1-.41,0,33.27,33.27,0,0,1,6-.12v15c0,.15,0,.29,0,.44,0,.45.19.62.65.67l.63,0Zm-7.84-5.31h0c0,1.08,0,2.17,0,3.26a6.94,6.94,0,0,0,.1,1.2.6.6,0,0,0,1,.42,1.53,1.53,0,0,0,.49-.58,7.17,7.17,0,0,0,.49-1.34,16.92,16.92,0,0,0,.24-5,14.54,14.54,0,0,0-.34-2.18,3.72,3.72,0,0,0-.44-1,.66.66,0,0,0-.72-.38.64.64,0,0,0-.53.55,7.64,7.64,0,0,0-.23,1.42C88.34,83.35,88.32,84.56,88.28,85.75Z"/><path d="M73.79,73.14H67.51l0-.08c.09,0,.17-.08.25-.1a.72.72,0,0,0,.68-.74c0-.13,0-.25,0-.38q0-3.84,0-7.69a3.28,3.28,0,0,0-.14-1,.87.87,0,0,0-1.44-.47,2.17,2.17,0,0,0-.69,1,4.47,4.47,0,0,0-.28,1.54c0,2.29,0,4.58,0,6.87,0,.72.1.83.82,1a.42.42,0,0,1,.12.08,36.14,36.14,0,0,1-6.49,0l.52-.05a1,1,0,0,0,1.07-1c0-.13,0-.25,0-.38V58.33a3.62,3.62,0,0,0,0-.57c-.07-.54-.31-.74-.86-.75a2.25,2.25,0,0,1-.52-.08,25.13,25.13,0,0,1,5.34-.12v6.53c.09,0,.15,0,.16-.06a2.56,2.56,0,0,1,2.21-1.48,7.11,7.11,0,0,1,1.9,0,2.67,2.67,0,0,1,2.3,2.33,6.11,6.11,0,0,1,.08,1c0,2.22,0,4.45,0,6.67a3.76,3.76,0,0,0,0,.58.53.53,0,0,0,.58.51h.7Z"/><path d="M49.44,73.19l-.25-.13a2.25,2.25,0,0,1-.61-3.71A8,8,0,0,1,50,68.46a4.4,4.4,0,0,1,.71-.25L50.3,68a4,4,0,0,1-1.38-1.24A2.46,2.46,0,0,1,49,63.79a4.59,4.59,0,0,1,2.53-1.64,6.77,6.77,0,0,1,2.57-.25l.62.05a7.64,7.64,0,0,1-.25-1.12,2.28,2.28,0,0,1,1.06-2.27,2.38,2.38,0,0,1,2.55-.15,1.77,1.77,0,0,1,1,1.82,1.61,1.61,0,0,1-1.16,1.45,1.83,1.83,0,0,1-2-.44,1.61,1.61,0,0,1-.24-2l.28-.47-.07-.08a1.13,1.13,0,0,0-.32.13,2.08,2.08,0,0,0-.88,2A1.73,1.73,0,0,0,56,62.3a4.52,4.52,0,0,1,1.83,1.21,2.55,2.55,0,0,1,0,3.6,5.25,5.25,0,0,1-3.08,1.54,6.73,6.73,0,0,1-3.18-.2.89.89,0,0,0-.85.17A.78.78,0,0,0,50.84,70a3.56,3.56,0,0,0,1.13.17c1.15,0,2.3,0,3.45,0a9.64,9.64,0,0,1,1.71.22c2.54.58,3,2.48,2.53,4.33a3.06,3.06,0,0,1-1.67,2,7.53,7.53,0,0,1-2.9.77,16.56,16.56,0,0,1-5.21-.23,5.66,5.66,0,0,1-1.68-.66,1.55,1.55,0,0,1-.09-2.71A10.44,10.44,0,0,1,49.44,73.19Zm3.35,4.26v-.06h.72a7.3,7.3,0,0,0,2.54-.4,1.48,1.48,0,0,0,1-1.45,1.34,1.34,0,0,0-.93-1.37,6.86,6.86,0,0,0-1.66-.42c-1.35-.15-2.71-.24-4.06-.33a1.46,1.46,0,0,0-1.43,1,1.93,1.93,0,0,0,1.42,2.67C51.17,77.29,52,77.34,52.79,77.45Zm2-12.07h-.05c0-.32,0-.64,0-1s0-.48,0-.72a5.55,5.55,0,0,0-.13-.8.93.93,0,0,0-1.05-.78c-.6,0-.92.29-1,1a14.83,14.83,0,0,0,0,4.26,2.17,2.17,0,0,0,.11.42.9.9,0,0,0,.85.65c.74.06,1.11-.16,1.23-.9S54.76,66.11,54.81,65.38Z"/><path d="M104.28,73.19a1.08,1.08,0,0,0-.22-.12,2.27,2.27,0,0,1-.42-3.9,14.35,14.35,0,0,1,1.86-1l-.33-.19a4.12,4.12,0,0,1-1.41-1.28,2.57,2.57,0,0,1,.6-3.45,6.09,6.09,0,0,1,4.44-1.34l.67,0s0,0,.12,0-.12-.35-.17-.53a2.46,2.46,0,0,1,3-3.15,2.42,2.42,0,0,1,1,.58,1.65,1.65,0,0,1,.44,1.89,1.71,1.71,0,0,1-1.61,1.11,1.77,1.77,0,0,1-1.72-.91,1.6,1.6,0,0,1,0-1.65,1.66,1.66,0,0,0,.23-.57,1.52,1.52,0,0,0-.32.12,2.08,2.08,0,0,0-.89,2,1.75,1.75,0,0,0,1.23,1.56,4.44,4.44,0,0,1,1.76,1.13,2.56,2.56,0,0,1,0,3.74,5.53,5.53,0,0,1-3.77,1.56,7.12,7.12,0,0,1-2.51-.29.88.88,0,0,0-1.08,1,.75.75,0,0,0,.66.61,13.56,13.56,0,0,0,1.43.12c1.36,0,2.72,0,4.08.12a4.88,4.88,0,0,1,1.64.47A2.71,2.71,0,0,1,114.62,73a3.38,3.38,0,0,1-2.33,4,9.58,9.58,0,0,1-2.47.54,15.08,15.08,0,0,1-5.48-.33,4.25,4.25,0,0,1-1.38-.64,1.52,1.52,0,0,1-.08-2.56A10.14,10.14,0,0,1,104.28,73.19Zm3.38,4.26v-.07a6.17,6.17,0,0,0,.86,0,16,16,0,0,0,2.3-.38,1.39,1.39,0,0,0,1.07-1.47,1.35,1.35,0,0,0-1-1.38,6.71,6.71,0,0,0-1.57-.4c-1.37-.14-2.74-.24-4.11-.33a1.45,1.45,0,0,0-1.43,1.06,1.91,1.91,0,0,0,1.44,2.62A23.7,23.7,0,0,0,107.66,77.45Zm2-12.12h0c0-.31,0-.61,0-.92a12,12,0,0,0-.17-1.47.94.94,0,0,0-1.15-.83c-.53,0-.83.34-1,1a14.87,14.87,0,0,0-.06,4.16,2.47,2.47,0,0,0,.11.47.92.92,0,0,0,.87.7c.75.06,1.13-.18,1.23-.94S109.62,66.06,109.67,65.33Z"/><path d="M76.66,56.82H68.08v-.13l.36-.06c.33,0,.67,0,1-.06a.74.74,0,0,0,.69-.74,1.94,1.94,0,0,0,0-.34V45.31c0-.12,0-.25,0-.42l-1.31-.06c.14-.4.42-.22.62-.25a5.59,5.59,0,0,1,.72,0c0-.6,0-1.14,0-1.68a3.3,3.3,0,0,1,1.71-3.16,7.8,7.8,0,0,1,6.13-1,4.21,4.21,0,0,1,1.52.77,2.29,2.29,0,0,1,.67,2.78,2.43,2.43,0,0,1-2.58,1.35,2.23,2.23,0,0,1-2-1.69,2.16,2.16,0,0,1,1.85-2.61,9.41,9.41,0,0,0,1.13-.14,1,1,0,0,0-.27-.19,3.13,3.13,0,0,0-2.07-.1,1.74,1.74,0,0,0-1.35,1.63c-.07,1.32,0,2.64,0,4h1.34c1.07,0,1.07,0,1.33.27H74.77V55.39c0,1,.26,1.23,1.22,1.24a5.52,5.52,0,0,1,.58,0s.07.05.1.07Z"/><path d="M108.2,44.72v1.16a3.45,3.45,0,0,1,3.46-1.55,3.12,3.12,0,0,1,3.15,3.2c0,1.48,0,3,0,4.46,0,.91,0,1.82,0,2.74,0,.66.17.8.83.82a3,3,0,0,1,.43,0s0,0,.07.11h-6.33c.06-.07.08-.12.11-.13.68-.18.82-.32.82-1q0-3.9,0-7.82a3.05,3.05,0,0,0-.12-.9.89.89,0,0,0-1.45-.49,1.91,1.91,0,0,0-.62.77,4.87,4.87,0,0,0-.34,1.58c0,2.32,0,4.64,0,7,0,.66.11.79.78.91,0,0,.1,0,.14.14h-6.44v-.12l.48,0a1,1,0,0,0,1.06-1.1q0-4.32,0-8.64c0-.69-.24-.9-.93-.92a4.66,4.66,0,0,1-.54,0A27.58,27.58,0,0,1,108.2,44.72Z"/><path d="M85.05,44.78A28.14,28.14,0,0,1,90,44.7c0,.17,0,.36,0,.54v9a4.61,4.61,0,0,0,0,.53c0,.51.29.72.82.75l.57,0a26.28,26.28,0,0,1-5.38.1V54.55l-.12,0c-.74,1.75-4,2-5.35.81a3.35,3.35,0,0,1-1.17-2.68c0-2.24,0-4.48,0-6.72,0-.16,0-.32,0-.48,0-.44-.21-.58-.65-.61l-.62,0s0,0,0-.08a31.68,31.68,0,0,1,5.35-.07c0,.18,0,.36,0,.55,0,2.74,0,5.47,0,8.21a4.4,4.4,0,0,0,.09,1,1,1,0,0,0,.71.81,1,1,0,0,0,1-.36,2.85,2.85,0,0,0,.73-2c0-1.38,0-2.76,0-4.13V45.84c0-.74-.09-.82-.83-1C85.15,44.87,85.11,44.82,85.05,44.78Z"/><path d="M138.84,44.79a27.34,27.34,0,0,1,4.94-.09c0,.17,0,.36,0,.54v8.94c0,.17,0,.35,0,.53,0,.6.27.81.88.84l.53,0a26.67,26.67,0,0,1-5.38.13V54.54l-.14,0A2.63,2.63,0,0,1,137.62,56a6.56,6.56,0,0,1-1.77,0,3.09,3.09,0,0,1-2.64-3.23c0-2.24,0-4.48,0-6.72a5.66,5.66,0,0,0,0-.58c-.05-.43-.21-.57-.65-.6a3.92,3.92,0,0,1-.68-.07,27.73,27.73,0,0,1,5.36-.11c0,.18,0,.36,0,.55q0,4.08,0,8.17a4.23,4.23,0,0,0,.09,1,1,1,0,0,0,1.72.49,2.82,2.82,0,0,0,.76-2c0-1.79,0-3.59,0-5.38V45.74c0-.63-.12-.76-.77-.85A1.29,1.29,0,0,1,138.84,44.79Z"/><path d="M89.11,73l.4-.05c.85,0,1.17-.35,1.18-1.21s0-1.54,0-2.31c0-2,0-3.91,0-5.86a3.18,3.18,0,0,0,0-.62.67.67,0,0,0-.75-.65,3.77,3.77,0,0,1-.58,0,25,25,0,0,1,5.34-.11v1.16a7.28,7.28,0,0,1,.93-1,4.21,4.21,0,0,1,4.32,0,3.06,3.06,0,0,1,1.36,2.52c0,.64,0,1.28,0,1.92,0,1.73,0,3.46,0,5.19,0,.9.23,1.09,1,1a1.37,1.37,0,0,1,.28,0,.22.22,0,0,1,.06.07,45.54,45.54,0,0,1-6.3,0s0-.09.08-.09c.7-.17.84-.32.84-1q0-3.9,0-7.78a3,3,0,0,0-.12-.9.9.9,0,0,0-1.49-.47,1.88,1.88,0,0,0-.62.83,5.36,5.36,0,0,0-.32,1.63c0,2.24,0,4.48,0,6.72,0,.77.08.86.83,1,0,0,.07,0,.17.14H89.12Z"/><path d="M118.77,85.57a6.15,6.15,0,0,1,6.67-5.92A6.08,6.08,0,0,1,131,84.4a5.91,5.91,0,0,1-4,6.75,6.15,6.15,0,0,1-7.89-3.8A17.52,17.52,0,0,1,118.77,85.57Zm7.74.22c-.05-1.52-.07-2.76-.16-4a4.16,4.16,0,0,0-.35-1.33,1,1,0,0,0-1.12-.58,1,1,0,0,0-.95.68,4.52,4.52,0,0,0-.26,1.07,42.88,42.88,0,0,0,0,7.85,4.31,4.31,0,0,0,.21.93,1,1,0,0,0,1.06.8,1,1,0,0,0,1.11-.74,3.78,3.78,0,0,0,.22-.88C126.37,88.24,126.44,86.87,126.51,85.79Z"/><path d="M32.73,73l.6,0a1,1,0,0,0,1-1c0-.62,0-1.24,0-1.87V58.34a3.81,3.81,0,0,0,0-.48.8.8,0,0,0-.89-.85l-.57,0a26.38,26.38,0,0,1,5.72-.15V71.48c0,.18,0,.36,0,.53,0,.67.29.89,1,.93l.29,0s0,0,0,.07a56.39,56.39,0,0,1-7.13,0Z"/><path d="M131.33,80.06h5.41l.12,1.12.22-.27a5.3,5.3,0,0,1,.39-.54,2.26,2.26,0,0,1,2.46-.76,2.31,2.31,0,0,1,1.61,2.07,2.36,2.36,0,0,1-.87,2.23,2,2,0,0,1-2.52-.13,2,2,0,0,1,1.95-3.3l.56.2a.63.63,0,0,0-.35-.67,2,2,0,0,0-2.37.17A2.69,2.69,0,0,0,137,82a7.73,7.73,0,0,0-.06,1V90c.05.72.23.89.94.91l.48,0A50.77,50.77,0,0,1,131,91a1.83,1.83,0,0,1,.35-.11c.2,0,.41,0,.62,0a.87.87,0,0,0,.83-.94c0-.41,0-.83,0-1.24V81.58a3.71,3.71,0,0,0,0-.58.76.76,0,0,0-.83-.74l-.59,0Z"/><path d="M145.9,55.59c.2,0,.39,0,.58,0,.82,0,1.12-.35,1.12-1.16q0-4.16,0-8.31a2.57,2.57,0,0,0,0-.48.79.79,0,0,0-.83-.71,2.76,2.76,0,0,1-.57-.06,26.56,26.56,0,0,1,5.4-.13l.13,1.17c.17-.26.27-.42.38-.57a2.41,2.41,0,0,1,1.85-1.14,2.34,2.34,0,0,1,2.46,2.66,2.25,2.25,0,0,1-.89,1.74,2,2,0,0,1-2.56-.18,2,2,0,0,1-.29-2.46,1.92,1.92,0,0,1,2.35-.78l.4.15s.06,0,.12,0c0-.31-.19-.47-.42-.61a2,2,0,0,0-2.71.61,3.38,3.38,0,0,0-.58,2v7.2a1.15,1.15,0,0,0,0,.19c0,.65.23.85.88.87l.47,0A39.31,39.31,0,0,1,145.9,55.59Z"/><path d="M99.22,55.7H92v-.12l.59,0c.78,0,1.1-.37,1.1-1.14V46.06a2.32,2.32,0,0,0,0-.53.75.75,0,0,0-.78-.63l-.68,0a25.1,25.1,0,0,1,5.48-.16l.13,1.18.32-.5a2.36,2.36,0,0,1,2.8-1.11,2.19,2.19,0,0,1,1.51,1.83,2.36,2.36,0,0,1-.75,2.39,2,2,0,0,1-2.56,0,1.93,1.93,0,0,1-.4-2.48,1.9,1.9,0,0,1,2.32-.84l.56.19a.62.62,0,0,0-.35-.66,2,2,0,0,0-2.44.22,2.79,2.79,0,0,0-.86,1.87,10.29,10.29,0,0,0,0,1.11v6.48a4.52,4.52,0,0,0,0,.52.68.68,0,0,0,.76.69h.55Z"/><path d="M116.5,81.14a2.24,2.24,0,0,0-.27-.45,2.75,2.75,0,0,0-2.3-.74,1.44,1.44,0,0,0-1.18.87,6.69,6.69,0,0,0-.57,1.72,20.57,20.57,0,0,0,0,6.41,5.57,5.57,0,0,0,.3,1.06,1.76,1.76,0,0,0,1.93,1.2A3.52,3.52,0,0,0,117,89.78a4.87,4.87,0,0,0,1-2.57c0-.11,0-.22.05-.33s0,0,.11-.06a3,3,0,0,1,0,.42c-.17,2.13-1.36,4.07-4.07,4.22a6.38,6.38,0,0,1-4.91-1.66,5.67,5.67,0,0,1,.15-8.37,6.57,6.57,0,0,1,6-1.51,3.47,3.47,0,0,1,2.25,1.6,2.83,2.83,0,0,1,.39,2.12,2.19,2.19,0,0,1-1.81,1.76,2.54,2.54,0,0,1-2.59-1,2.11,2.11,0,0,1,0-2.39,2.23,2.23,0,0,1,2.36-.91c.15,0,.3.08.45.12Z"/><path d="M167.22,49.92a22.26,22.26,0,0,1-3.15.07c-1,0-2,0-3,0,0,.06-.09.08-.09.1a13.48,13.48,0,0,0,.29,4.2,1.73,1.73,0,0,0,2.19,1.42,4.2,4.2,0,0,0,3.49-3.48,4.64,4.64,0,0,1,.11-.51l.13,0a3.75,3.75,0,0,1,0,.58,4.4,4.4,0,0,1-4.28,3.7,7.6,7.6,0,0,1-2.18-.23,5.35,5.35,0,0,1-4-5.74,5.86,5.86,0,0,1,4.07-5.44,5,5,0,0,1,6.53,4.69A5.32,5.32,0,0,1,167.22,49.92Zm-6.28-.22h2.33a3.2,3.2,0,0,0,.08-.48c0-.9,0-1.79,0-2.69a8.77,8.77,0,0,0-.16-1.24.71.71,0,0,0-.58-.62.82.82,0,0,0-.9.32,3.06,3.06,0,0,0-.4.86A15.87,15.87,0,0,0,160.94,49.7Z"/><path d="M106.82,85.26a4.88,4.88,0,0,1-.72.09c-1.67,0-3.33,0-5,0h-.59c0,.63,0,1.22,0,1.8a18.11,18.11,0,0,0,.34,2.56,1.65,1.65,0,0,0,2.07,1.37,4.16,4.16,0,0,0,3.56-3.41c0-.19.07-.38.11-.57l.17,0c0,.22,0,.45,0,.66a4.42,4.42,0,0,1-3.55,3.54,6.27,6.27,0,0,1-3.89-.5,5.25,5.25,0,0,1-3-4.92,5.86,5.86,0,0,1,4.58-6.05,5,5,0,0,1,6,4.93C106.86,84.9,106.84,85,106.82,85.26Zm-3.95-.19c0-.23.06-.4.06-.57,0-.86,0-1.73,0-2.59a7.88,7.88,0,0,0-.13-1.19.76.76,0,0,0-.63-.7.84.84,0,0,0-.94.42,3,3,0,0,0-.39,1c-.13,1.12-.2,2.25-.3,3.39a.83.83,0,0,0,.06.21Z"/><path d="M124.85,45c-.41-.18-.81.07-1.12-.25,2.75-.13,4.72-1.25,5.36-4.13a3.21,3.21,0,0,1,.11,1.27c0,.45,0,.9,0,1.35v1.42h1.86v.16c-.24.21-.56.08-.84.1s-.64,0-1,0c0,.21,0,.36,0,.51v8.69a3.69,3.69,0,0,0,0,.58.48.48,0,0,0,.85.29,1.74,1.74,0,0,0,.47-.76,18.17,18.17,0,0,0,.33-1.79.55.55,0,0,1,.15-.33.46.46,0,0,1,.05.2,14.77,14.77,0,0,1-.37,2.11A2.3,2.3,0,0,1,128.8,56a4.79,4.79,0,0,1-2.46-.19,2.08,2.08,0,0,1-1.48-2.13q0-4.08,0-8.16Z"/><path d="M74.62,62.32H73.51c.07-.36.31-.26.47-.26A4.85,4.85,0,0,0,77.09,61a3.91,3.91,0,0,0,1.64-2.82s0-.08.15-.14a3.29,3.29,0,0,1,.09.43V62a10.13,10.13,0,0,1,1.86.17,10.08,10.08,0,0,1-1.84.16c0,.19,0,.34,0,.5v8.64a3.18,3.18,0,0,0,0,.62.48.48,0,0,0,.85.28,1.85,1.85,0,0,0,.49-.8,14.11,14.11,0,0,0,.3-1.6,1.28,1.28,0,0,1,.13-.47c0,.07.1.15.09.22a15.23,15.23,0,0,1-.35,2,2.27,2.27,0,0,1-2.11,1.69,6.63,6.63,0,0,1-2-.12A2.11,2.11,0,0,1,74.62,71v-8.7Z"/><path d="M116.79,44.82a31.39,31.39,0,0,1,5.71-.11v9.52a5.62,5.62,0,0,0,0,.58.76.76,0,0,0,.81.71,1.85,1.85,0,0,1,.48.08,40.57,40.57,0,0,1-7.14,0l.45-.06c.78,0,1.12-.35,1.12-1.12V45.94c0-.78-.24-1-1-1A3.5,3.5,0,0,1,116.79,44.82Z"/><path d="M47.7,73.13H40.59l0-.11a3.54,3.54,0,0,1,.45-.08c.8,0,1.11-.35,1.11-1.17q0-4.14,0-8.3c0-.92-.18-1.1-1.12-1.16a1.56,1.56,0,0,1-.28-.08,33.75,33.75,0,0,1,5.66-.08v9.48c0,.2,0,.41,0,.62a.74.74,0,0,0,.78.69l.49,0Z"/><path d="M81.46,62.13h5.66v9.51a3.63,3.63,0,0,0,0,.57.75.75,0,0,0,.8.73l.45,0v.11a.23.23,0,0,1,0,0,4,4,0,0,1-.47,0l-6.57,0s0,0-.09-.15l.46,0c.81,0,1.14-.35,1.14-1.14V63.35c0-.75-.26-1-1-1a1.33,1.33,0,0,1-.28,0S81.54,62.24,81.46,62.13Z"/><path d="M84.88,61.3a2.6,2.6,0,0,1-1.65-.56,1.91,1.91,0,0,1,0-3,2.65,2.65,0,0,1,3.36,0,1.88,1.88,0,0,1-.18,3.07,7.85,7.85,0,0,1-1.44.57Z"/><path d="M44.15,57.05a8.14,8.14,0,0,1,1.44.56,1.9,1.9,0,0,1,0,3.24,2.66,2.66,0,0,1-3,0,1.89,1.89,0,0,1,.05-3.24A9,9,0,0,1,44.15,57.05Z"/><path d="M120.27,43.88a2.47,2.47,0,0,1-1.72-.62,1.9,1.9,0,0,1,.15-3,2.69,2.69,0,0,1,3-.08,1.91,1.91,0,0,1,0,3.3,7.72,7.72,0,0,1-1.37.51Z"/></g></svg>