<svg id="Layer_1" data-name="Layer 1" xmlns="http://www.w3.org/2000/svg" viewBox="0 0 200 130"><g id="Fh6IvZ.tif"><path d="M149.43,48.62a9.27,9.27,0,0,1,.19,1.27c0,8.38,0,16.77,0,25.16a19.22,19.22,0,0,0,.19,2.83c.25,1.66.85,2.17,2.53,2.32l.58,0,0,.6h-4c-.84,0-1.69,0-2.54,0a2.64,2.64,0,0,1-3-2.72,10.88,10.88,0,0,0-.17-1.85,2.33,2.33,0,0,0-.2.34c-1,2.47-2.56,4.41-5.51,4.58-3.27.18-6-.82-7.9-3.65a11.75,11.75,0,0,1-1.71-5,19.91,19.91,0,0,1,.55-8.65c1-3.15,2.81-5.57,6.1-6.59,4.11-1.27,7.28.29,8.8,4.29a.87.87,0,0,0,.33.44v-2c0-2.4,0-4.81-.14-7.2-.1-1.72-.85-2.32-2.58-2.43-.61,0-1.22,0-1.86,0l-.07-.54c1.54-.12,3-.17,4.54-.38s3.25-.6,4.88-.91Zm-5.72,20c0-.79.06-1.59,0-2.37a12.38,12.38,0,0,0-1.95-6.45c-1.61-2.25-4.2-2.22-5.69.11a9.33,9.33,0,0,0-1.23,3,29.45,29.45,0,0,0-.1,12.33,9,9,0,0,0,1.39,3.28,3,3,0,0,0,5,.11,9.65,9.65,0,0,0,1.35-2.3A17.39,17.39,0,0,0,143.71,68.64Z"/><path d="M177,67a8.45,8.45,0,0,1-1.19.2c-4.62,0-9.25,0-13.87,0H161c-.2,3.54-.06,6.91,1.93,9.91a7,7,0,0,0,10.2,1.39,16.18,16.18,0,0,0,1.26-1.36c-.54.06-.86.11-1.18.13a3.59,3.59,0,1,1-.18-7.17,3.44,3.44,0,0,1,3.66,3.58,6.38,6.38,0,0,1-2.41,4.79A10.63,10.63,0,0,1,168.72,81a15.86,15.86,0,0,1-7.08-.56,9.28,9.28,0,0,1-6.56-6.64A14,14,0,0,1,156,63a11.72,11.72,0,0,1,15.92-4.74,9.51,9.51,0,0,1,4.87,7.09c.05.25.12.49.19.73Zm-6.48-.46a18,18,0,0,0-.65-5.6,7.34,7.34,0,0,0-.72-1.68,3.42,3.42,0,0,0-5.65-.6,5.84,5.84,0,0,0-1.28,2.06c-.47,1.48-.76,3-1.09,4.53a8.66,8.66,0,0,0-.1,1.29Z"/><path d="M70.27,77.05c-2.71,3.81-6.22,5.07-10.68,3.91a4.94,4.94,0,0,1-4.05-4c-.44-2.45-.13-4.77,2.07-6.33A12.8,12.8,0,0,1,60.92,69c1.77-.59,3.61-1,5.4-1.53a13.81,13.81,0,0,0,2.54-1.07,2.89,2.89,0,0,0,1.59-2.7c0-.36,0-.72,0-1.07-.12-3.21-1.87-5-5.07-5A9.06,9.06,0,0,0,60,59a3.64,3.64,0,0,0,.41.06A3.38,3.38,0,0,1,64,62.69a3.5,3.5,0,0,1-3.76,3.5,3.64,3.64,0,0,1-3.17-5.51A5.42,5.42,0,0,1,60,58.13a15.56,15.56,0,0,1,12.63.24,6.35,6.35,0,0,1,3.82,5.87c.12,3.3,0,6.6.07,9.9,0,1.12,0,2.25.1,3.37a3.15,3.15,0,0,0,5.06,2.27,2.59,2.59,0,0,0,.89-1.45,14.1,14.1,0,0,0,.28-3c0-4.19,0-8.39,0-12.58a11.76,11.76,0,0,0-.15-2.06,2,2,0,0,0-2-1.92c-.52-.06-1.06-.07-1.63-.1v-.39l9.64-1v5.27l.21,0c.15-.31.29-.63.46-.93,1.57-2.86,3.87-4.62,7.26-4.56a3.78,3.78,0,0,1,3.8,4.59,3.41,3.41,0,0,1-2.89,2.89,3.61,3.61,0,0,1-3.26-6.05,1.55,1.55,0,0,1,.33-.21l-.11-.16a5,5,0,0,0-.53.11,6.64,6.64,0,0,0-3.75,3.23,10.4,10.4,0,0,0-1.38,4.9c-.08,3.55,0,7.11,0,10.66a4.79,4.79,0,0,0,.09.84c.31,1.64.9,2.17,2.57,2.32l.58,0,0,.6H74c-2.61,0-3.37-.69-3.63-3.28C70.3,77.43,70.29,77.31,70.27,77.05Zm.19-10.7L66.79,68c-.76.36-1.55.67-2.28,1.09a4.48,4.48,0,0,0-2.08,2.75,10.73,10.73,0,0,0-.22,4.78,3.27,3.27,0,0,0,2.24,2.86,3.63,3.63,0,0,0,3.82-.93,6.42,6.42,0,0,0,2-3.57,16.15,16.15,0,0,0,.22-2.51C70.48,70.42,70.46,68.34,70.46,66.35Z"/><path d="M35.15,68.72c0,3-.09,5.77,0,8.57a2.63,2.63,0,0,0,2.47,2.63c1,.18,1.93.24,3,.36l.06.51H23.11L23,80.3a2.82,2.82,0,0,1,.41-.09A26.21,26.21,0,0,0,26.08,80a2.76,2.76,0,0,0,2.58-2.71,14.68,14.68,0,0,0,.14-2q0-9.93,0-19.86a17.71,17.71,0,0,0-.2-2.52,2.51,2.51,0,0,0-2.3-2.24c-1-.14-1.93-.18-3-.28L23.29,50c.08-.05.13-.09.17-.09,6.29,0,12.58,0,18.86.17a15.61,15.61,0,0,1,6.53,1.64A7.84,7.84,0,0,1,53.6,59.2a8,8,0,0,1-4.73,7.71,20.82,20.82,0,0,1-8.45,1.8C38.66,68.78,36.89,68.72,35.15,68.72ZM35,68.18c1.71-.09,3.33-.05,4.92-.29,3.55-.53,5.95-2.48,6.8-6.06a12.61,12.61,0,0,0,0-5.7,6.36,6.36,0,0,0-3.37-4.52c-2.65-1.35-5.5-1.17-8.37-1.14Z"/><path d="M106.48,59.05s.08.06.12.06A3.2,3.2,0,0,1,110,61a3.51,3.51,0,0,1-.47,3.9,3.75,3.75,0,0,1-6-4.45,5.62,5.62,0,0,1,3-2.46,15.76,15.76,0,0,1,12.28.27,6.36,6.36,0,0,1,4,5.87c.13,2.75,0,5.52.07,8.28,0,1.56,0,3.12.1,4.68a5.8,5.8,0,0,0,.46,1.92c.43,1,1.4,1.08,2.34,1.15l.42,0v.6h-4.23c-.75,0-1.49,0-2.24,0a2.64,2.64,0,0,1-2.93-2.6l-.13-1.06a1.35,1.35,0,0,0-.24.23,7.52,7.52,0,0,1-6.07,3.81,11,11,0,0,1-5.16-.51,4.89,4.89,0,0,1-3.35-4.37c-.34-3.34.85-5.5,4-6.75,1.87-.74,3.87-1.17,5.8-1.78a26.14,26.14,0,0,0,3.25-1.16,3.25,3.25,0,0,0,2-3.24c0-4.2-2-6.06-6.16-5.75A7.24,7.24,0,0,0,106.48,59.05Zm10.31,7.31L113.29,68c-.76.35-1.56.65-2.29,1.06a4.48,4.48,0,0,0-2.15,2.69,10.2,10.2,0,0,0-.21,5.23A3.26,3.26,0,0,0,112,79.72,3.9,3.9,0,0,0,115,78.26a7.6,7.6,0,0,0,1.86-5.15c0-2.09,0-4.19,0-6.28A3.56,3.56,0,0,0,116.79,66.36Z"/></g></svg>